<svg width="217" height="211" viewBox="0 0 217 211" fill="none" xmlns="http://www.w3.org/2000/svg">
<path d="M199.482 180.496H189.23L194.912 153.729H185.216L186.957 145.604H216.602L214.861 153.729H205.165L199.482 180.496Z" fill="#BEDF22"/>
<path d="M178.301 172.777L176.584 180.901H151.969L159.392 146.01H183.983L182.242 154.134H167.904L166.719 159.792H180.163L178.591 167.143H165.147L163.938 172.777H178.301Z" fill="#BEDF22"/>
<path d="M149.092 172.777L147.375 180.901H122.76L130.183 146.01H154.774L153.033 154.134H138.695L137.51 159.792H150.954L149.382 167.143H135.938L134.729 172.777H149.092Z" fill="#BEDF22"/>
<path d="M87.0952 180.901H78.052L85.451 146.01H97.3232L100.201 167.892H100.394L112.17 146.01H124.961L117.537 180.901H108.47L113.185 158.946H112.895L100.757 180.901H94.8569L91.9553 158.946H91.7619L87.0952 180.901Z" fill="#BEDF22"/>
<path d="M72.8049 180.901H62.5527L69.9759 146.01H80.2281L72.8049 180.901Z" fill="#BEDF22"/>
<path d="M60.8844 172.535L59.0951 180.901H34.6494L42.0726 146.01H52.3248L46.6909 172.535H60.8844Z" fill="#BEDF22"/>
<path d="M24.8567 159.653C24.8809 159.508 24.8809 159.411 24.8809 158.686C24.8809 155.615 22.4629 153.245 19.3196 153.245C14.1935 153.245 10.5665 158.468 10.5665 165.843C10.5665 170.123 12.6943 172.758 16.1762 172.758C19.5614 172.758 22.2937 170.606 23.3092 167.149H33.2471C32.0381 175.491 24.8809 181.1 15.4508 181.1C6.09328 181.1 0 175.345 0 166.472C0 153.39 7.95511 145 20.3835 145C28.8222 145 34.9155 150.489 34.9155 158.105C34.9155 158.71 34.8671 159.266 34.7946 159.653H24.8567Z" fill="#BEDF22"/>
<path d="M116.884 4.44434C105.454 5.61926 93.6811 13.9906 89.2237 18.0294C80.2541 23.5942 74.708 42.4324 72.8877 51.9176C71.0599 59.3481 75.3232 69.3827 77.6833 73.4712C96.0014 96.5292 127.203 88.7086 140.515 81.916C148.281 78.8318 139.354 77.0817 133.92 76.5921C119.119 75.4172 117.367 57.6975 117.061 49.6199C122.557 31.6289 140.698 28.1264 140.515 16.9279C140.368 7.96911 124.7 4.87269 116.884 4.44434Z" fill="#BEDF22"/>
<path fill-rule="evenodd" clip-rule="evenodd" d="M72.8511 52.7011C71.503 60.0094 75.5329 69.448 77.7999 73.3767C95.7136 95.9344 125.997 88.8342 139.642 82.1627C139.705 82.1322 139.767 82.1017 139.828 82.0712C140.017 81.9779 140.203 81.8847 140.385 81.7917C145.603 79.719 143.257 78.251 139.516 77.3651C139.42 77.3425 139.324 77.3203 139.227 77.2984C137.486 76.9069 135.485 76.6371 133.816 76.4866C119.073 75.3158 117.328 57.6587 117.024 49.6096C119.864 40.306 126.097 34.8906 131.411 30.2738C136.337 25.9943 140.473 22.401 140.385 17.033C140.239 8.10582 124.632 5.02033 116.847 4.59348C105.461 5.76426 93.735 14.1061 89.2951 18.1306C80.3606 23.6757 74.8362 42.4474 73.0231 51.8992C72.9582 52.1633 72.9009 52.4308 72.8511 52.7011ZM68.545 50.9219C67.3965 55.7371 68.2396 60.955 69.4438 65.1556C70.684 69.482 72.4884 73.3449 73.834 75.677C73.9472 75.8731 74.0747 76.0606 74.2155 76.2379C84.4193 89.0869 98.2319 93.2477 110.932 93.332C123.401 93.4148 135.111 89.6013 142.277 85.9799C143.333 85.5498 144.334 85.0559 145.179 84.4602C145.972 83.9018 147.28 82.8052 147.793 80.9818C148.427 78.7301 147.492 76.8605 146.511 75.7877C145.661 74.8576 144.63 74.3081 143.928 73.9882C141.21 72.7486 136.919 72.1542 134.226 71.9116L134.178 71.9075C129.091 71.5035 126.144 68.4474 124.234 63.8583C122.38 59.405 121.822 54.1099 121.636 50.2316C124.045 43.0515 128.848 38.5878 133.829 34.2516C134.04 34.0677 134.254 33.8823 134.47 33.6952C136.757 31.7103 139.253 29.5445 141.145 27.1964C143.33 24.4855 145.035 21.1578 144.966 16.9577C144.842 9.40125 138.233 5.36397 133.166 3.35421C127.67 1.17435 121.298 0.23716 117.097 0.00685357C116.858 -0.00626659 116.618 -0.000543222 116.38 0.0239715C109.826 0.697901 103.428 3.38749 98.2413 6.27651C93.225 9.0707 89.0338 12.225 86.518 14.4581C80.9218 18.1274 76.9646 25.2623 74.2582 31.7859C71.4092 38.6536 69.5034 45.9643 68.545 50.9219ZM139.912 76.9426C139.908 76.9454 139.904 76.9486 139.898 76.9523C139.944 76.9149 139.955 76.9125 139.912 76.9426ZM140.241 82.4046C140.24 82.4048 140.229 82.3988 140.208 82.3859C140.231 82.398 140.242 82.4044 140.241 82.4046Z" fill="#BEDF22"/>
<path d="M108 51.8517C108 55.1245 105.347 57.7776 102.074 57.7776C98.8013 57.7776 96.1482 55.1245 96.1482 51.8517C96.1482 48.5789 98.8013 45.9258 102.074 45.9258C105.347 45.9258 108 48.5789 108 51.8517Z" fill="#333333"/>
<path fill-rule="evenodd" clip-rule="evenodd" d="M102.074 55.0426C103.836 55.0426 105.265 53.614 105.265 51.8517C105.265 50.0894 103.836 48.6608 102.074 48.6608C100.312 48.6608 98.8832 50.0894 98.8832 51.8517C98.8832 53.614 100.312 55.0426 102.074 55.0426ZM102.074 57.7776C105.347 57.7776 108 55.1245 108 51.8517C108 48.5789 105.347 45.9258 102.074 45.9258C98.8013 45.9258 96.1482 48.5789 96.1482 51.8517C96.1482 55.1245 98.8013 57.7776 102.074 57.7776Z" fill="#333333"/>
<path d="M56.9722 197.706V198.746C56.9722 199.764 56.9722 200.914 56.6792 202.394H58.437V203.521H46.4985V202.394H55.2876C55.3975 201.852 55.4707 201.361 55.522 200.899L47.8315 201.222L47.6558 200.138L55.5806 199.918C55.5952 199.53 55.5952 199.171 55.5952 198.819H47.9927V197.706H56.9722ZM57.0601 204.62V207.799H49.2817V208.985H57.5288V210.084H47.8901V206.759H55.6831V205.689H47.8608V204.62H57.0601ZM69.6724 197.12V202.247H71.7817V203.419H69.6724V210.274H68.2954V197.12H69.6724ZM65.9663 198.307V203.126H61.3667V205.968C63.6226 205.96 65.2925 205.88 67.2114 205.528L67.3433 206.656C65.2925 207.037 63.52 207.125 61.0591 207.14H59.9897V201.998H64.5894V199.435H59.9604V198.307H65.9663ZM83.2808 197.12V210.274H81.8892V197.12H83.2808ZM76.2642 198.102C78.2124 198.102 79.6479 199.889 79.6479 202.701C79.6479 205.528 78.2124 207.315 76.2642 207.315C74.2866 207.315 72.8657 205.528 72.8657 202.701C72.8657 199.889 74.2866 198.102 76.2642 198.102ZM76.2642 199.347C75.0483 199.347 74.2134 200.636 74.2134 202.701C74.2134 204.781 75.0483 206.07 76.2642 206.07C77.4653 206.07 78.3003 204.781 78.3003 202.701C78.3003 200.636 77.4653 199.347 76.2642 199.347ZM92.3042 198.072V203.844H86.064V198.072H92.3042ZM87.4263 199.186V202.716H90.9272V199.186H87.4263ZM96.2593 197.135V204.942H94.8677V197.135H96.2593ZM91.8794 205.162C94.604 205.162 96.3179 206.085 96.3179 207.696C96.3179 209.293 94.604 210.23 91.8794 210.216C89.1108 210.23 87.397 209.293 87.397 207.696C87.397 206.085 89.1108 205.162 91.8794 205.162ZM91.8794 206.261C89.9165 206.246 88.7886 206.759 88.7886 207.696C88.7886 208.604 89.9165 209.117 91.8794 209.117C93.7837 209.117 94.9409 208.604 94.9409 207.696C94.9409 206.759 93.7837 206.246 91.8794 206.261ZM105.649 198.526V199.332C105.649 200.431 105.649 202.13 105.268 204.474L103.891 204.371C104.221 202.269 104.257 200.753 104.272 199.654H98.9399V198.526H105.649ZM102.28 202.276V206.202C103.679 206.158 105.1 206.063 106.411 205.895L106.484 206.935C103.745 207.374 100.698 207.433 98.3687 207.418L98.2075 206.29C99.0278 206.283 99.9434 206.275 100.903 206.246V202.276H102.28ZM108.564 197.12V202.54H110.571V203.727H108.564V210.245H107.158V197.12H108.564ZM121.616 198.277V204.4H115.478V198.277H121.616ZM116.84 199.405V203.302H120.253V199.405H116.84ZM125.278 197.105V201.031H127.182V202.203H125.278V206.729H123.886V197.105H125.278ZM125.834 208.839V209.967H116.958V205.807H118.349V208.839H125.834ZM140.19 202.276V203.419H138.154V210.23H136.762V197.12H138.154V202.276H140.19ZM129.804 198.395V205.777C131.635 205.777 133.547 205.624 135.634 205.191L135.795 206.363C133.554 206.817 131.474 206.935 129.511 206.935H128.427V198.395H129.804ZM151.513 200.958V202.071H142.475V197.589H143.852V200.958H151.513ZM152.89 203.727V204.84H140.878V203.727H152.89ZM151.601 208.795V209.938H142.373V206.085H143.764V208.795H151.601ZM167.978 197.75V198.702C167.978 199.698 167.978 200.841 167.656 202.364L166.279 202.218C166.586 200.797 166.601 199.779 166.601 198.849H158.925V197.75H167.978ZM169.472 203.199V204.312H157.534V203.199H162.324V200.621H163.686V203.199H169.472ZM164.155 205.807C164.14 207.418 166 208.751 168.579 209.103L168.051 210.187C165.971 209.872 164.257 208.956 163.452 207.608C162.639 208.956 160.917 209.872 158.852 210.187L158.354 209.103C160.888 208.751 162.734 207.418 162.749 205.807V205.279H164.155V205.807Z" fill="white"/>
</svg>
