<svg width="25" height="25" viewBox="0 0 25 25" fill="none" xmlns="http://www.w3.org/2000/svg">
<g id="ph:x-bold">
<path id="Vector" d="M18.6629 17.0473C18.8775 17.2619 18.9981 17.553 18.9981 17.8565C18.9981 18.16 18.8775 18.4511 18.6629 18.6658C18.4483 18.8804 18.1572 19.001 17.8537 19.001C17.5502 19.001 17.2591 18.8804 17.0445 18.6658L11 12.6194L4.95365 18.6639C4.73903 18.8785 4.44794 18.999 4.14442 18.999C3.8409 18.999 3.54981 18.8785 3.33519 18.6639C3.12057 18.4492 3 18.1581 3 17.8546C3 17.5511 3.12057 17.26 3.33519 17.0454L9.38155 11.001L3.3371 4.9546C3.12248 4.73998 3.0019 4.44889 3.0019 4.14537C3.0019 3.84185 3.12248 3.55077 3.3371 3.33614C3.55172 3.12152 3.8428 3.00095 4.14632 3.00095C4.44984 3.00095 4.74093 3.12152 4.95555 3.33614L11 9.3825L17.0464 3.33519C17.261 3.12057 17.5521 3 17.8556 3C18.1591 3 18.4502 3.12057 18.6648 3.33519C18.8794 3.54981 19 3.8409 19 4.14442C19 4.44794 18.8794 4.73903 18.6648 4.95365L12.6185 11.001L18.6629 17.0473Z" fill="white"/>
</g>
</svg>
