<svg width="21" height="21" viewBox="0 0 21 21" fill="none" xmlns="http://www.w3.org/2000/svg">
<g id="teenyicons:sound-on-outline" clip-path="url(#clip0_6303_77116)">
<path id="Vector" d="M4.9 14.6921L5.2598 14.0915L5.0932 13.9935H4.9V14.6921ZM4.9 6.29774V6.99774H5.0932L5.2612 6.89834L4.9 6.29774ZM11.9 2.10054H12.6C12.6 1.97669 12.5672 1.85504 12.5048 1.74803C12.4425 1.64101 12.3529 1.55245 12.2451 1.49139C12.1374 1.43032 12.0154 1.39894 11.8915 1.40044C11.7677 1.40194 11.6464 1.43628 11.5402 1.49994L11.9 2.10054ZM11.9 18.8893L11.5402 19.4899C11.6464 19.5536 11.7677 19.5879 11.8915 19.5894C12.0154 19.5909 12.1374 19.5596 12.2451 19.4985C12.3529 19.4374 12.4425 19.3489 12.5048 19.2418C12.5672 19.1348 12.6 19.0132 12.6 18.8893H11.9ZM19.3942 5.80214L18.9 5.30794L17.9102 6.29774L18.4058 6.79334L19.3942 5.80214ZM18.4058 14.1965L17.9102 14.6921L18.9 15.6819L19.3942 15.1877L18.4058 14.1965ZM4.9 13.9935L2.1 13.9921V15.3921H4.9V13.9935ZM2.1 13.9921C1.91435 13.9921 1.7363 13.9184 1.60503 13.7871C1.47375 13.6558 1.4 13.4778 1.4 13.2921H0C0 14.4541 0.9408 15.3921 2.1 15.3921V13.9921ZM1.4 13.2921V7.69774H0V13.2949L1.4 13.2921ZM1.4 7.69774C1.40037 7.51233 1.47428 7.33324 1.60552 7.20227C1.73675 7.07129 1.91459 6.99774 2.1 6.99774V5.59774C1.54305 5.59774 1.0089 5.81899 0.615076 6.21281C0.221249 6.60664 0 7.14078 0 7.69774H1.4ZM2.1 6.99774H4.9V5.59774H2.1V6.99774ZM5.2612 6.89834L12.2598 2.70114L11.5402 1.49994L4.5402 5.69714L5.2612 6.89834ZM11.2 2.10054V18.8893H12.6V2.10054H11.2ZM12.2598 18.2887L5.2598 14.0915L4.5402 15.2927L11.5402 19.4899L12.2598 18.2887ZM18.9 6.29774C18.4058 6.79334 18.4044 6.79334 18.4044 6.79194C18.4033 6.79114 18.4024 6.7902 18.4016 6.78914L18.4058 6.79334L18.4338 6.82414C18.6445 7.0817 18.8258 7.36205 18.9742 7.65994C19.2822 8.27454 19.6 9.21674 19.6 10.4949H21C21 8.97454 20.6192 7.81954 20.2258 7.03414C20.0708 6.72027 19.8881 6.42088 19.6798 6.13954C19.6003 6.03426 19.5157 5.93287 19.4264 5.83574L19.4068 5.81474L19.3998 5.80774L19.397 5.80494L19.3956 5.80354L18.9 6.29774ZM19.6 10.4949C19.6 11.7731 19.2808 12.7153 18.9742 13.3299C18.8258 13.6278 18.6446 13.9082 18.4338 14.1657C18.4247 14.1762 18.4153 14.1864 18.4058 14.1965L18.4016 14.2007L18.403 14.1993L18.4044 14.1979L18.9 14.6921C19.3942 15.1877 19.3956 15.1877 19.3956 15.1863L19.3998 15.1821L19.4068 15.1751L19.4264 15.1555L19.4866 15.0883C19.5356 15.0323 19.6014 14.9525 19.6784 14.8503C19.8324 14.6459 20.0298 14.3463 20.2258 13.9557C20.6178 13.1717 21 12.0153 21 10.4949H19.6Z" fill="white"/>
</g>
<defs>
<clipPath id="clip0_6303_77116">
<rect width="21" height="21" fill="white"/>
</clipPath>
</defs>
</svg>
