<svg width="17" height="15" viewBox="0 0 17 15" fill="none" xmlns="http://www.w3.org/2000/svg">
<path d="M5.15625 0C5.15625 3.96094 3.02344 7.5 0 7.5C3.02344 7.5 5.15625 11.0391 5.15625 15C5.15625 11.0391 7.28906 7.5 10.3125 7.5C7.28906 7.5 5.15625 3.96094 5.15625 0Z" fill="#FFE54D"/>
<path d="M13.75 0C13.75 1.96875 12.6719 3.75 11.1719 3.75C12.6719 3.75 13.75 5.53125 13.75 7.5C13.75 5.53125 14.8281 3.75 16.3281 3.75C14.8281 3.75 13.75 1.96875 13.75 0Z" fill="#BEDF22"/>
<path d="M12.5781 7.5C12.5781 9.46875 11.5 11.25 10 11.25C11.5 11.25 12.5781 13.0312 12.5781 15C12.5781 13.0312 13.6562 11.25 15.1562 11.25C13.6562 11.25 12.5781 9.46875 12.5781 7.5Z" fill="#E64646"/>
</svg>
