<svg width="6" height="9" viewBox="0 0 6 9" fill="none" xmlns="http://www.w3.org/2000/svg">
<path d="M5.64551 4.47461C5.64551 4.59668 5.59668 4.7041 5.50391 4.79688L1.63672 8.58105C1.54883 8.66895 1.44141 8.71289 1.31445 8.71289C1.06543 8.71289 0.870117 8.52246 0.870117 8.26855C0.870117 8.1416 0.918945 8.03418 0.99707 7.95117L4.55176 4.47461L0.99707 0.998047C0.918945 0.915039 0.870117 0.802734 0.870117 0.680664C0.870117 0.426758 1.06543 0.236328 1.31445 0.236328C1.44141 0.236328 1.54883 0.280273 1.63672 0.363281L5.50391 4.15234C5.59668 4.24023 5.64551 4.35254 5.64551 4.47461Z" fill="white"/>
</svg>
