<svg width="21" height="21" viewBox="0 0 21 21" fill="none" xmlns="http://www.w3.org/2000/svg">
<g id="&#236;&#160;&#132;&#236;&#178;&#180;&#234;&#179;&#181;&#234;&#176;&#156;">
<path id="Vector" d="M10.5 0C4.704 0 0 4.704 0 10.5C0 16.296 4.704 21 10.5 21C16.296 21 21 16.296 21 10.5C21 4.704 16.296 0 10.5 0ZM9.45 18.8265C5.3025 18.312 2.1 14.784 2.1 10.5C2.1 9.849 2.184 9.2295 2.3205 8.6205L7.35 13.65V14.7C7.35 15.855 8.295 16.8 9.45 16.8V18.8265ZM16.695 16.1595C16.422 15.309 15.645 14.7 14.7 14.7H13.65V11.55C13.65 10.9725 13.1775 10.5 12.6 10.5H6.3V8.4H8.4C8.9775 8.4 9.45 7.9275 9.45 7.35V5.25H11.55C12.705 5.25 13.65 4.305 13.65 3.15V2.7195C16.7265 3.969 18.9 6.9825 18.9 10.5C18.9 12.684 18.06 14.6685 16.695 16.1595Z" fill="white"/>
</g>
</svg>
