<svg width="12" height="8" viewBox="0 0 12 8" fill="none" xmlns="http://www.w3.org/2000/svg">
<path id="Vector" fill-rule="evenodd" clip-rule="evenodd" d="M6.6483 6.9136C6.47928 7.06781 6.25007 7.15445 6.01108 7.15445C5.77208 7.15445 5.54287 7.06781 5.37385 6.9136L0.275159 2.26003C0.189075 2.18414 0.120411 2.09337 0.0731743 1.99301C0.0259377 1.89264 0.00107397 1.7847 3.40301e-05 1.67547C-0.00100591 1.56625 0.0217989 1.45792 0.0671174 1.35683C0.112436 1.25573 0.179361 1.16388 0.263987 1.08664C0.348613 1.00941 0.449245 0.948323 0.560013 0.906961C0.67078 0.865599 0.789464 0.844785 0.909139 0.845734C1.02881 0.846683 1.14708 0.869376 1.25705 0.912489C1.36701 0.955602 1.46646 1.01827 1.54961 1.09684L6.01108 5.16882L10.4725 1.09684C10.6425 0.946992 10.8702 0.864077 11.1065 0.865951C11.3428 0.867825 11.5689 0.954339 11.736 1.10686C11.9031 1.25938 11.9979 1.4657 12 1.68139C12.002 1.89708 11.9112 2.10488 11.747 2.26003L6.6483 6.9136Z" fill="white"/>
</svg>
